<mxfile host="app.diagrams.net" modified="2022-09-22T08:50:38.577Z" agent="5.0 (Windows NT 10.0; Win64; x64) AppleWebKit/537.36 (KHTML, like Gecko) Chrome/105.0.0.0 Safari/537.36 Edg/105.0.1343.42" etag="NY_gbZ-XlVkaOrWgGwZ9" version="20.3.0" type="github">
  <diagram id="JShtXEyegTJHompjyWO9" name="第 1 页">
    <mxGraphModel dx="2202" dy="1157" grid="1" gridSize="10" guides="1" tooltips="1" connect="1" arrows="1" fold="1" page="1" pageScale="1" pageWidth="827" pageHeight="1169" math="0" shadow="0">
      <root>
        <mxCell id="0" />
        <mxCell id="1" parent="0" />
        <mxCell id="NhnFLNv8PCH_-zZ34Y96-18" value="" style="rounded=1;whiteSpace=wrap;html=1;" vertex="1" parent="1">
          <mxGeometry x="-110" y="110" width="1180" height="450" as="geometry" />
        </mxCell>
        <mxCell id="NhnFLNv8PCH_-zZ34Y96-19" value="" style="rounded=1;whiteSpace=wrap;html=1;" vertex="1" parent="1">
          <mxGeometry x="-110" y="565" width="1180" height="450" as="geometry" />
        </mxCell>
        <mxCell id="NhnFLNv8PCH_-zZ34Y96-1" value="low_level_pending_request_queue&lt;br&gt;" style="rounded=1;whiteSpace=wrap;html=1;" vertex="1" parent="1">
          <mxGeometry x="230" y="190" width="270" height="60" as="geometry" />
        </mxCell>
        <mxCell id="NhnFLNv8PCH_-zZ34Y96-3" value="pending_request_queue" style="rounded=1;whiteSpace=wrap;html=1;" vertex="1" parent="1">
          <mxGeometry x="630" y="190" width="270" height="60" as="geometry" />
        </mxCell>
        <mxCell id="NhnFLNv8PCH_-zZ34Y96-5" style="edgeStyle=orthogonalEdgeStyle;rounded=0;orthogonalLoop=1;jettySize=auto;html=1;" edge="1" parent="1" source="NhnFLNv8PCH_-zZ34Y96-4" target="NhnFLNv8PCH_-zZ34Y96-1">
          <mxGeometry relative="1" as="geometry">
            <Array as="points">
              <mxPoint x="480" y="120" />
              <mxPoint x="305" y="120" />
            </Array>
          </mxGeometry>
        </mxCell>
        <mxCell id="NhnFLNv8PCH_-zZ34Y96-7" style="edgeStyle=orthogonalEdgeStyle;rounded=0;orthogonalLoop=1;jettySize=auto;html=1;entryX=0.723;entryY=0.013;entryDx=0;entryDy=0;entryPerimeter=0;" edge="1" parent="1" source="NhnFLNv8PCH_-zZ34Y96-4" target="NhnFLNv8PCH_-zZ34Y96-3">
          <mxGeometry relative="1" as="geometry" />
        </mxCell>
        <mxCell id="NhnFLNv8PCH_-zZ34Y96-4" value="" style="rounded=1;whiteSpace=wrap;html=1;" vertex="1" parent="1">
          <mxGeometry x="420" width="120" height="60" as="geometry" />
        </mxCell>
        <mxCell id="NhnFLNv8PCH_-zZ34Y96-14" style="edgeStyle=orthogonalEdgeStyle;rounded=0;orthogonalLoop=1;jettySize=auto;html=1;entryX=0.5;entryY=0;entryDx=0;entryDy=0;" edge="1" parent="1" source="NhnFLNv8PCH_-zZ34Y96-8" target="NhnFLNv8PCH_-zZ34Y96-11">
          <mxGeometry relative="1" as="geometry" />
        </mxCell>
        <mxCell id="NhnFLNv8PCH_-zZ34Y96-15" style="edgeStyle=orthogonalEdgeStyle;rounded=0;orthogonalLoop=1;jettySize=auto;html=1;entryX=1;entryY=0.5;entryDx=0;entryDy=0;" edge="1" parent="1" source="NhnFLNv8PCH_-zZ34Y96-8" target="NhnFLNv8PCH_-zZ34Y96-10">
          <mxGeometry relative="1" as="geometry" />
        </mxCell>
        <mxCell id="NhnFLNv8PCH_-zZ34Y96-8" value="getRequest()" style="rounded=1;whiteSpace=wrap;html=1;" vertex="1" parent="1">
          <mxGeometry x="900" y="380" width="120" height="60" as="geometry" />
        </mxCell>
        <mxCell id="NhnFLNv8PCH_-zZ34Y96-9" value="replyRequest()" style="rounded=1;whiteSpace=wrap;html=1;" vertex="1" parent="1">
          <mxGeometry x="557.5" y="380" width="120" height="60" as="geometry" />
        </mxCell>
        <mxCell id="NhnFLNv8PCH_-zZ34Y96-10" value="map&amp;lt; req_id, http_req&amp;gt;" style="rounded=1;whiteSpace=wrap;html=1;" vertex="1" parent="1">
          <mxGeometry x="677.5" y="470" width="175" height="60" as="geometry" />
        </mxCell>
        <mxCell id="NhnFLNv8PCH_-zZ34Y96-11" value="http" style="rounded=1;whiteSpace=wrap;html=1;" vertex="1" parent="1">
          <mxGeometry x="900" y="760" width="120" height="60" as="geometry" />
        </mxCell>
        <mxCell id="NhnFLNv8PCH_-zZ34Y96-12" value="处理" style="rounded=1;whiteSpace=wrap;html=1;" vertex="1" parent="1">
          <mxGeometry x="732.5" y="760" width="120" height="60" as="geometry" />
        </mxCell>
        <mxCell id="NhnFLNv8PCH_-zZ34Y96-16" style="edgeStyle=orthogonalEdgeStyle;rounded=0;orthogonalLoop=1;jettySize=auto;html=1;entryX=0.5;entryY=1;entryDx=0;entryDy=0;" edge="1" parent="1" source="NhnFLNv8PCH_-zZ34Y96-13" target="NhnFLNv8PCH_-zZ34Y96-9">
          <mxGeometry relative="1" as="geometry" />
        </mxCell>
        <mxCell id="NhnFLNv8PCH_-zZ34Y96-13" value="回复" style="rounded=1;whiteSpace=wrap;html=1;" vertex="1" parent="1">
          <mxGeometry x="557.5" y="760" width="120" height="60" as="geometry" />
        </mxCell>
        <mxCell id="NhnFLNv8PCH_-zZ34Y96-17" value="wait_queue" style="rounded=1;whiteSpace=wrap;html=1;" vertex="1" parent="1">
          <mxGeometry x="-30" y="190" width="120" height="60" as="geometry" />
        </mxCell>
      </root>
    </mxGraphModel>
  </diagram>
</mxfile>
